<?xml version="1.0" encoding="utf-8"?>
<!-- Generator: Adobe Illustrator 21.1.0, SVG Export Plug-In . SVG Version: 6.00 Build 0)  -->
<svg version="1.1" id="레이어_1" xmlns="http://www.w3.org/2000/svg" xmlns:xlink="http://www.w3.org/1999/xlink" x="0px"
	 y="0px" viewBox="0 0 841.9 595.3" style="enable-background:new 0 0 841.9 595.3;" xml:space="preserve">
<style type="text/css">
	.st0{stroke:#000000;stroke-miterlimit:10;}
	.st1{fill:#FFDA00;}
</style>
<path class="st0" d="M145.3,71.2"/>
<path class="st1" d="M-113.4,363.8v-15.1c-7.2,1.6-15,2.4-23.3,2.4h-50.7c-7.4,0-12.6-1.3-15.8-3.8c-3.2-2.5-4.8-6.1-4.8-10.9V206.2
	h25.6c16.4,0,29.3,5.4,38.8,16.3c9.5,10.9,14.6,28.8,15.4,54h14.8v-86.2h-168.8v93.5c0,22.9-5.3,40.7-16,53.5
	c-10.6,12.8-25.2,19.2-43.7,19.2c-0.8,0-1.6,0-2.5,0c-15.2-0.4-28.1-5-38.6-13.6c-11.2-9.1-16.7-19.2-16.7-30.2
	c0-4.1,0.8-7.2,2.4-9.3c1.5-2.1,3.5-3.1,6-3.1c1.3,0,4,0.6,8,1.8c4.7,1.5,8.4,2.2,11.1,2.2c6.9,0,13.1-2.9,18.4-8.8
	c5.3-5.8,8-13,8-21.6c0-9.9-3.3-18.1-9.8-24.5c-6.5-6.4-14.8-9.6-24.8-9.6c-12.3,0-22.6,5-31,14.8c-8.4,9.9-12.6,23.1-12.6,39.7
	c0,22.3,8.3,41.2,25,56.6c14.6,13.5,32.8,21.1,54.7,22.8v49.3h230.9L-113.4,363.8L-113.4,363.8z"/>
<path d="M585.7,355.9v-19.1c-9.2,2-19.1,3.1-29.6,3.1h-64.3c-9.4,0-16.1-1.6-20.1-4.8c-4-3.2-6-7.8-6-13.8V155.8h32.5
	c20.8,0,37.2,6.9,49.2,20.7c12.1,13.8,18.6,36.6,19.5,68.5h18.8V135.6H371.3v118.7c0,29.1-6.8,51.7-20.3,67.9
	c-13.5,16.2-32,24.3-55.4,24.3c-1.1,0-2.1,0-3.1,0c-19.3-0.6-35.6-6.3-49.1-17.3c-14.2-11.5-21.2-24.3-21.2-38.4
	c0-5.2,1-9.2,3.1-11.8c1.9-2.6,4.4-3.9,7.6-3.9c1.7,0,5.1,0.8,10.1,2.3c6,1.9,10.7,2.8,14.1,2.8c8.8,0,16.6-3.7,23.4-11.1
	c6.8-7.4,10.1-16.6,10.1-27.4c0-12.6-4.1-22.9-12.4-31.1c-8.3-8.2-18.8-12.2-31.5-12.2c-15.6,0-28.7,6.3-39.4,18.9
	c-10.7,12.6-16,29.4-16,50.4c0,28.3,10.6,52.3,31.8,71.9c18.5,17.1,41.7,26.8,69.5,28.9v62.6h293.2L585.7,355.9L585.7,355.9z"/>
<g>
	<path d="M481.1,323.6c0,0.7-0.1,1.3-0.3,1.9c-0.2,0.6-0.5,1.1-1,1.6s-0.9,0.8-1.5,1.1c-0.6,0.3-1.3,0.4-2,0.4
		c-0.9,0-1.7-0.2-2.3-0.6c-0.6-0.4-1.1-0.8-1.4-1.2l2.2-1.8c0.2,0.2,0.4,0.4,0.7,0.5c0.3,0.1,0.6,0.2,0.9,0.2c0.2,0,0.4,0,0.6-0.1
		c0.2-0.1,0.4-0.2,0.6-0.4c0.2-0.2,0.4-0.4,0.5-0.7s0.2-0.7,0.2-1.2v-14.8h2.9V323.6z"/>
	<path d="M486.9,308.4h2.4l4.5,19.9h-2.9l-0.8-4.3h-3.9l-0.8,4.3h-2.9L486.9,308.4z M488.1,314.1L488.1,314.1l-1.5,7.2h2.9
		L488.1,314.1z"/>
	<path d="M495.2,308.4h8.5v2.7H498v5.9h4.9v2.7H498v5.9h5.7v2.9h-8.5V308.4z"/>
	<path d="M510.7,308.4h8.5v2.7h-5.7v5.9h4.9v2.7h-4.9v5.9h5.7v2.9h-8.5V308.4z"/>
	<path d="M530.3,323.9c0,0.7-0.1,1.3-0.4,1.8c-0.2,0.6-0.6,1-1,1.5c-0.4,0.4-0.9,0.8-1.5,1c-0.6,0.2-1.2,0.4-1.8,0.4
		c-0.6,0-1.2-0.1-1.8-0.4c-0.6-0.2-1-0.6-1.5-1c-0.4-0.4-0.8-0.9-1-1.5c-0.2-0.6-0.4-1.2-0.4-1.8v-15.5h2.9v15.2
		c0,0.7,0.2,1.2,0.5,1.6s0.8,0.5,1.3,0.5s0.9-0.2,1.3-0.5s0.5-0.9,0.5-1.6v-15.2h2.9V323.9z"/>
	<path d="M532.9,308.4h2.7l4.3,12h0.1v-12h2.9v19.9h-2.7l-4.4-12h-0.1v12h-2.9V308.4z"/>
	<path d="M559.9,314.1H557v-0.6c0-0.7-0.2-1.2-0.5-1.7c-0.3-0.5-0.8-0.7-1.6-0.7c-0.4,0-0.7,0.1-1,0.2c-0.3,0.2-0.4,0.3-0.6,0.6
		c-0.1,0.2-0.2,0.5-0.3,0.8c-0.1,0.3-0.1,0.6-0.1,1c0,0.4,0,0.7,0,1s0.1,0.5,0.2,0.7c0.1,0.2,0.3,0.4,0.5,0.5s0.5,0.3,0.9,0.4
		l2.2,0.9c0.6,0.2,1.1,0.5,1.5,0.9c0.4,0.3,0.7,0.7,0.9,1.1s0.4,0.9,0.4,1.5c0.1,0.6,0.1,1.2,0.1,1.9c0,0.8-0.1,1.6-0.3,2.3
		s-0.4,1.3-0.8,1.8c-0.4,0.5-0.9,0.9-1.5,1.2c-0.6,0.3-1.4,0.4-2.3,0.4c-0.7,0-1.3-0.1-1.9-0.4c-0.6-0.2-1.1-0.6-1.5-1
		c-0.4-0.4-0.8-0.9-1-1.5c-0.3-0.6-0.4-1.2-0.4-1.9v-1.1h2.9v0.9c0,0.5,0.2,1,0.5,1.4s0.8,0.6,1.6,0.6c0.5,0,0.9-0.1,1.1-0.2
		c0.3-0.1,0.5-0.3,0.6-0.6s0.2-0.6,0.3-0.9c0-0.4,0.1-0.8,0.1-1.2c0-0.5,0-1-0.1-1.3c0-0.3-0.1-0.6-0.2-0.8s-0.3-0.4-0.5-0.5
		s-0.5-0.3-0.9-0.4l-2-0.8c-1.2-0.5-2.1-1.2-2.5-2c-0.4-0.8-0.6-1.9-0.6-3.1c0-0.7,0.1-1.5,0.3-2.1c0.2-0.7,0.5-1.2,0.9-1.7
		s0.9-0.9,1.5-1.2c0.6-0.3,1.3-0.4,2.2-0.4c0.7,0,1.4,0.1,1.9,0.4s1.1,0.6,1.5,1s0.7,0.9,1,1.4c0.2,0.5,0.3,1.1,0.3,1.6V314.1z"/>
	<path d="M562,308.4h8.5v2.7h-5.7v5.9h4.9v2.7h-4.9v5.9h5.7v2.9H562V308.4z"/>
	<path d="M572.2,313.1c0-0.8,0.1-1.5,0.4-2.1c0.3-0.6,0.6-1.1,1.1-1.5c0.5-0.4,1-0.7,1.5-0.9s1.1-0.3,1.7-0.3c0.6,0,1.2,0.1,1.7,0.3
		s1.1,0.5,1.5,0.9s0.8,0.9,1.1,1.5c0.3,0.6,0.4,1.3,0.4,2.1v10.5c0,0.8-0.1,1.5-0.4,2.1c-0.3,0.6-0.6,1.1-1.1,1.5s-1,0.7-1.5,0.9
		s-1.1,0.3-1.7,0.3c-0.6,0-1.2-0.1-1.7-0.3s-1.1-0.5-1.5-0.9c-0.5-0.4-0.8-0.9-1.1-1.5s-0.4-1.3-0.4-2.1V313.1z M575.1,323.6
		c0,0.7,0.2,1.2,0.6,1.5c0.4,0.3,0.8,0.5,1.4,0.5c0.5,0,1-0.2,1.4-0.5s0.6-0.8,0.6-1.5v-10.5c0-0.7-0.2-1.2-0.6-1.5
		s-0.8-0.5-1.4-0.5c-0.5,0-1,0.2-1.4,0.5c-0.4,0.3-0.6,0.8-0.6,1.5V323.6z"/>
</g>
</svg>
